<?xml version="1.0" encoding="utf-8"?>
<!-- Generator: Adobe Illustrator 16.0.0, SVG Export Plug-In . SVG Version: 6.00 Build 0)  -->
<!DOCTYPE svg PUBLIC "-//W3C//DTD SVG 1.1//EN" "http://www.w3.org/Graphics/SVG/1.1/DTD/svg11.dtd">
<svg version="1.1" id="Layer_1" xmlns="http://www.w3.org/2000/svg" xmlns:xlink="http://www.w3.org/1999/xlink" x="0px" y="0px"
	 width="113.084px" height="159.346px" viewBox="0 0 113.084 159.346" enable-background="new 0 0 113.084 159.346"
	 xml:space="preserve">
<path fill-rule="evenodd" clip-rule="evenodd" fill="#FFFFFF" d="M95.107,83.93c6.172,0,9.797-4.818,9.074-9.406l1.283-0.924
	l3.201,2.441c-0.531,3.222-4.688,10.379-12.477,10.379c-0.084,0-0.293,0-0.584,0c7.943,4.27,13.701,13.624,13.701,25.717
	c0,27.397-21.105,44.487-52.006,44.487c-28.866,0-54.924-19.438-54.924-49.499c0-25.223,19.58-45.606,40.699-45.606
	c-9.473,0-26.43-7.161-26.43-26.311c0-20.311,16.048-31.695,35.79-31.695c19.002,0,32.234,15.175,32.234,28.158l-3.971,0.027
	c0-16.464-16.939-24.874-28.029-24.874c-19.308,0-32.371,11.045-32.371,28.345c0,15.567,13.872,23.932,26.163,23.932
	c0,0.821,0.006,3.91,0.006,4.712c-22.483,0-40.355,20.705-40.355,43.5c0,27.358,25.195,45.732,51.088,45.732
	c29.846,0,48.621-17.015,48.621-41.016c0-14.813-9.672-25.259-19.881-25.259c-9.652,0-13.75,6.055-13.75,10.206
	c-0.461,0-2.152-0.02-2.689-0.02c0-4.948,4.107-13.085,16.221-13.085C86.465,83.874,94.805,83.93,95.107,83.93z"/>
</svg>
