<?xml version="1.0" encoding="utf-8"?>
<!-- Generator: Adobe Illustrator 16.0.0, SVG Export Plug-In . SVG Version: 6.00 Build 0)  -->
<!DOCTYPE svg PUBLIC "-//W3C//DTD SVG 1.1//EN" "http://www.w3.org/Graphics/SVG/1.1/DTD/svg11.dtd">
<svg version="1.1" id="Layer_1" xmlns="http://www.w3.org/2000/svg" xmlns:xlink="http://www.w3.org/1999/xlink" x="0px" y="0px"
	 width="55.607px" height="56.075px" viewBox="0 0 55.607 56.075" enable-background="new 0 0 55.607 56.075" xml:space="preserve">
<path fill-rule="evenodd" clip-rule="evenodd" fill="#FEF064" d="M45.95,49.538H9.659c-1.824,0-3.301-1.481-3.301-3.307V9.844
	c0-1.825,1.477-3.307,3.301-3.307H45.95c1.822,0,3.299,1.481,3.299,3.307v36.387C49.249,48.056,47.772,49.538,45.95,49.538
	L45.95,49.538z M17.265,42.372c2.074,0,3.756-1.702,3.756-3.805c0-2.098-1.682-3.801-3.756-3.801c-2.076,0-3.758,1.703-3.758,3.801
	C13.507,40.669,15.188,42.372,17.265,42.372L17.265,42.372z M13.55,27.456c0.266-0.014,0.535-0.02,0.805-0.02
	c8.244,0,14.959,6.615,15.248,14.889l4.307-0.043c-0.312-10.66-8.947-19.203-19.555-19.203c-0.254,0-0.506,0.005-0.758,0.015
	L13.55,27.456L13.55,27.456z M14.464,14.255h-0.867v4.472l0.76-0.062c13.123,0,23.67,10.364,24.004,23.564l4.283,0.08
	C42.306,26.825,29.843,14.255,14.464,14.255L14.464,14.255z"/>
</svg>
