<?xml version="1.0" encoding="utf-8"?>
<!-- Generator: Adobe Illustrator 16.0.0, SVG Export Plug-In . SVG Version: 6.00 Build 0)  -->
<!DOCTYPE svg PUBLIC "-//W3C//DTD SVG 1.1//EN" "http://www.w3.org/Graphics/SVG/1.1/DTD/svg11.dtd">
<svg version="1.1" id="Layer_1" xmlns="http://www.w3.org/2000/svg" xmlns:xlink="http://www.w3.org/1999/xlink" x="0px" y="0px"
	 width="55.607px" height="56.075px" viewBox="0 0 55.607 56.075" enable-background="new 0 0 55.607 56.075" xml:space="preserve">
<path fill-rule="evenodd" clip-rule="evenodd" fill="#FEF064" d="M45.951,49.537H9.659c-1.822,0-3.3-1.482-3.3-3.307V9.844
	c0-1.826,1.478-3.307,3.3-3.307h36.292c1.822,0,3.299,1.48,3.299,3.307V46.23C49.25,48.055,47.773,49.537,45.951,49.537
	L45.951,49.537z M40.614,31.598c-0.557-0.287-1.532-0.037-1.532-0.037l-10.074,3.227c0,0-5.669-20.371-7.163-21.322
	c-0.105-0.068-0.312-0.408-1.304-0.264c-1.586,0.234-5.858,1.865-6.34,2.49c-0.325,0.424,0,1.326,0,1.326l8.303,24.172
	c0,0,0.43,1.363,1.164,1.627c0.734,0.262,1.379,0,1.379,0s15.807-5.041,15.819-5.041c0.013,0,1.127,0.312,1.227-1.414
	C42.195,34.637,41.17,31.887,40.614,31.598L40.614,31.598z"/>
</svg>
