<?xml version="1.0" encoding="utf-8"?>
<!-- Generator: Adobe Illustrator 16.0.0, SVG Export Plug-In . SVG Version: 6.00 Build 0)  -->
<!DOCTYPE svg PUBLIC "-//W3C//DTD SVG 1.1//EN" "http://www.w3.org/Graphics/SVG/1.1/DTD/svg11.dtd">
<svg version="1.1" id="Layer_1" xmlns="http://www.w3.org/2000/svg" xmlns:xlink="http://www.w3.org/1999/xlink" x="0px" y="0px"
	 width="55.607px" height="56.075px" viewBox="0 0 55.607 56.075" enable-background="new 0 0 55.607 56.075" xml:space="preserve">
<path fill-rule="evenodd" clip-rule="evenodd" fill="#FEF064" d="M45.951,49.538H9.659c-1.822,0-3.3-1.481-3.3-3.307V9.845
	c0-1.826,1.478-3.307,3.3-3.307h36.292c1.82,0,3.299,1.481,3.299,3.307v36.386C49.25,48.056,47.771,49.538,45.951,49.538
	L45.951,49.538z M41.558,25.356c1.322-0.627,2.61-2.863,2.61-2.863c0.068-0.732-0.418-0.418-0.418-0.418
	c-0.453,0.054-2.244,1.197-2.244,1.197c-1.184,1.15-1.55,0.04-1.55,0.04c0-4.675-6.367-5.236-6.367-5.236
	c-0.453-0.07-0.557-0.559-0.035-0.592c0.521-0.037,2.063-1.419,2.063-1.419c0.453-0.976-1.043-0.384-1.043-0.384
	c-0.418,0.314-0.766-0.209-0.766-0.209c-0.349-0.35-1.403,0.07-1.403,0.07c-0.244,0.383-1.461,0.139-1.461,0.139
	c-3.794,0.664-6.14,10.684-6.14,10.684c-0.07,0.768-0.66-0.035-0.66-0.035c-3.237-3.942-4.513-3.02-4.513-3.02
	c-0.452,0.453,0.351,1.012,0.351,1.012c0.312,0.35-0.035,0.419-0.035,0.419c-1.114-0.488-1.403,0.196-1.403,0.196
	c-0.139,0.139,0.602,0.754,1.02,1.068s-0.035,0.478-0.035,0.478c-0.661-0.175-2.436-0.657-2.436-0.657
	c-0.696,0.07,0.174,1.205,0.174,1.205c0.557,0.35-0.579,1.48-0.579,1.48c-1.01-0.174-0.975,0.593-0.975,0.593
	c-0.557,1.361,7.295,3.672,7.295,3.672c0.801,0.418,0.209,1.281,0.209,1.281c-2.406,3.152-6.054,2.173-6.054,2.173
	c-1.915,0-6.521-2.125-6.521-2.125c-0.799-0.175,0.209,0.908,0.209,0.908c5.22,6.14,13.202,5.675,13.202,5.675
	c15.937,0,16.32-12.204,16.32-12.204c0-0.384,0.418-0.488,0.418-0.488c0.625,0,3.482-1.859,3.482-1.859
	c0.627-1.186-0.73-0.523-0.73-0.523c-0.521,0.314-1.639,0.545-1.639,0.545C40.757,26.367,41.558,25.356,41.558,25.356L41.558,25.356
	z"/>
</svg>
