<?xml version="1.0" encoding="utf-8"?>
<!-- Generator: Adobe Illustrator 16.0.0, SVG Export Plug-In . SVG Version: 6.00 Build 0)  -->
<!DOCTYPE svg PUBLIC "-//W3C//DTD SVG 1.1//EN" "http://www.w3.org/Graphics/SVG/1.1/DTD/svg11.dtd">
<svg version="1.1" id="Layer_1" xmlns="http://www.w3.org/2000/svg" xmlns:xlink="http://www.w3.org/1999/xlink" x="0px" y="0px"
	 width="55.607px" height="56.075px" viewBox="0 0 55.607 56.075" enable-background="new 0 0 55.607 56.075" xml:space="preserve">
<path fill-rule="evenodd" clip-rule="evenodd" fill="#FEF064" d="M45.949,49.538H9.658c-1.822,0-3.299-1.482-3.299-3.307V9.844
	c0-1.826,1.477-3.307,3.299-3.307h36.291c1.822,0,3.299,1.48,3.299,3.307v36.387C49.248,48.055,47.771,49.538,45.949,49.538
	L45.949,49.538z M22.305,13.704c0-1.217-0.984-2.205-2.199-2.205s-2.199,0.988-2.199,2.205v2.205c0,1.217,0.984,2.205,2.199,2.205
	s2.199-0.988,2.199-2.205V13.704L22.305,13.704z M37.701,13.704c0-1.217-0.984-2.205-2.199-2.205s-2.199,0.988-2.199,2.205v2.205
	c0,1.217,0.984,2.205,2.199,2.205s2.199-0.988,2.199-2.205V13.704L37.701,13.704z M43.201,17.01c0-1.217-0.984-2.203-2.201-2.203
	h-2.197v1.102c0,0-0.035,3.342-3.301,3.342c0,0-3.299-0.035-3.299-3.307l-0.033-1.137h-8.799v1.102c0,0,0.033,3.342-3.266,3.342
	c0,0-3.334,0.035-3.334-3.307v-1.137h-2.164c-1.215,0-2.201,0.986-2.201,2.203v23.156c0,1.217,0.986,2.203,2.201,2.203H41
	c1.217,0,2.201-0.986,2.201-2.203V17.01L43.201,17.01z M14.607,22.526H41v17.641H14.607V22.526L14.607,22.526z M27.805,29.112h3.887
	c-0.877,1.092-1.52,1.945-1.924,2.904c-0.406,0.961-0.705,2.311-0.893,3.729h2.396c0.08-1.021,0.232-2.062,0.461-2.811
	c0.289-0.959,0.371-1.484,0.867-2.266c0.41-0.643,1.184-1.139,1.793-1.691v-2.076h-6.588V29.112L27.805,29.112z M21.217,31.057
	c0.623-0.377,0.857-0.531,0.857-0.531s0.934-0.428,1.326-0.729v5.947h2.17v-8.818h-1.91c-0.256,0.545-0.611,0.828-1.062,1.199
	c-0.453,0.371-0.562,0.484-1.381,0.953V31.057L21.217,31.057z"/>
</svg>
