<?xml version="1.0" encoding="utf-8"?>
<!-- Generator: Adobe Illustrator 16.0.0, SVG Export Plug-In . SVG Version: 6.00 Build 0)  -->
<!DOCTYPE svg PUBLIC "-//W3C//DTD SVG 1.1//EN" "http://www.w3.org/Graphics/SVG/1.1/DTD/svg11.dtd">
<svg version="1.1" id="Layer_1" xmlns="http://www.w3.org/2000/svg" xmlns:xlink="http://www.w3.org/1999/xlink" x="0px" y="0px"
	 width="34.77px" height="45.914px" viewBox="0 0 34.77 45.914" enable-background="new 0 0 34.77 45.914" xml:space="preserve">
<g>
	<path fill="#FFC74E" d="M17.651,42.979C15.236,41.155,3.436,27.348,3.436,17.529c0-7.857,6.393-14.25,14.25-14.25
		s14.25,6.393,14.25,14.25C31.936,26.239,20.026,40.979,17.651,42.979z"/>
	<path fill="#FFE3A5" d="M17.686,4.279c7.306,0,13.25,5.944,13.25,13.25c0,7.514-10.01,20.818-13.32,24.128
		c-3.397-3.086-13.18-15.492-13.18-24.128C4.436,10.223,10.379,4.279,17.686,4.279 M17.686,2.279c-8.423,0-15.25,6.828-15.25,15.25
		c0,10.917,13.833,26.583,15.25,26.583c1.25,0,15.25-16.833,15.25-26.583C32.936,9.107,26.107,2.279,17.686,2.279L17.686,2.279z"/>
</g>
<g>
	<path fill="#FFFFFF" d="M17.668,27.05c-1.158-0.908-6.594-7.33-6.594-11.825c0-3.646,2.966-6.612,6.611-6.612
		s6.611,2.966,6.611,6.612C24.297,19.213,18.809,26.058,17.668,27.05z"/>
	<path fill="#C19637" d="M17.686,9.113c3.37,0,6.111,2.742,6.111,6.112c0,3.508-4.557,9.558-6.144,11.159
		c-1.608-1.501-6.079-7.225-6.079-11.159C11.574,11.854,14.316,9.113,17.686,9.113 M17.686,8.113c-3.928,0-7.111,3.184-7.111,7.112
		c0,5.091,6.451,12.397,7.111,12.397c0.583,0,7.111-7.851,7.111-12.397C24.797,11.297,21.612,8.113,17.686,8.113L17.686,8.113z"/>
</g>
</svg>
