<?xml version="1.0" encoding="utf-8"?>
<!-- Generator: Adobe Illustrator 16.0.0, SVG Export Plug-In . SVG Version: 6.00 Build 0)  -->
<!DOCTYPE svg PUBLIC "-//W3C//DTD SVG 1.1//EN" "http://www.w3.org/Graphics/SVG/1.1/DTD/svg11.dtd">
<svg version="1.1" id="Layer_1" xmlns="http://www.w3.org/2000/svg" xmlns:xlink="http://www.w3.org/1999/xlink" x="0px" y="0px"
	 width="300px" height="113px" viewBox="0 0 300 113" enable-background="new 0 0 300 113" xml:space="preserve">
<path d="M49.682,79.285c-0.516,0-0.945,0.087-1.287,0.262c-0.341,0.175-0.615,0.391-0.82,0.648c-0.205,0.259-0.35,0.533-0.433,0.821
	c-0.083,0.288-0.133,0.546-0.148,0.773h5.262c-0.152-0.819-0.421-1.442-0.809-1.867C51.061,79.498,50.472,79.285,49.682,79.285z"/>
<path d="M65.513,80.48c-0.228-0.355-0.521-0.646-0.877-0.866c-0.357-0.22-0.794-0.329-1.31-0.329c-0.531,0-0.976,0.109-1.333,0.329
	c-0.356,0.221-0.646,0.506-0.865,0.855c-0.221,0.349-0.376,0.751-0.467,1.207c-0.091,0.455-0.136,0.927-0.136,1.411
	c0,0.471,0.049,0.935,0.147,1.39c0.099,0.456,0.258,0.854,0.478,1.196c0.221,0.342,0.513,0.619,0.878,0.832
	c0.364,0.212,0.804,0.318,1.321,0.318c0.531,0,0.976-0.106,1.332-0.318c0.357-0.213,0.646-0.49,0.866-0.832s0.375-0.74,0.467-1.196
	c0.091-0.455,0.136-0.919,0.136-1.39s-0.049-0.933-0.148-1.389C65.904,81.244,65.74,80.838,65.513,80.48z"/>
<path d="M70.934,58.968c-0.228-0.355-0.52-0.645-0.877-0.865c-0.356-0.22-0.793-0.33-1.309-0.33c-0.532,0-0.976,0.11-1.333,0.33
	c-0.357,0.22-0.646,0.505-0.866,0.854s-0.375,0.751-0.467,1.208c-0.091,0.455-0.137,0.926-0.137,1.412
	c0,0.471,0.05,0.935,0.148,1.39c0.099,0.456,0.258,0.854,0.478,1.195c0.22,0.342,0.513,0.619,0.877,0.832
	c0.364,0.212,0.805,0.318,1.321,0.318c0.532,0,0.976-0.105,1.333-0.318c0.356-0.213,0.645-0.49,0.866-0.832
	c0.22-0.341,0.376-0.739,0.466-1.195c0.091-0.455,0.137-0.919,0.137-1.39s-0.049-0.934-0.148-1.389
	C71.325,59.732,71.162,59.326,70.934,58.968z"/>
<path d="M5.02,3.628v104.161h104.161V3.628H5.02z M76.833,51.167h3.235v16.264h-3.235V51.167z M52.621,37.582
	c0.289-0.759,0.698-1.417,1.229-1.971c0.532-0.554,1.166-0.99,1.903-1.309c0.736-0.319,1.552-0.479,2.449-0.479
	c1.002,0,1.875,0.194,2.619,0.581c0.744,0.387,1.355,0.908,1.833,1.561c0.479,0.652,0.824,1.396,1.037,2.231
	c0.211,0.835,0.288,1.708,0.227,2.62h-8.496c0.045,1.048,0.312,1.807,0.797,2.277c0.486,0.471,1.185,0.707,2.096,0.707
	c0.653,0,1.215-0.163,1.686-0.49c0.471-0.327,0.759-0.672,0.865-1.037h2.848c-0.457,1.413-1.154,2.422-2.096,3.03
	c-0.942,0.607-2.081,0.911-3.416,0.911c-0.927,0-1.762-0.148-2.506-0.444c-0.744-0.297-1.374-0.718-1.89-1.264
	c-0.517-0.547-0.915-1.2-1.196-1.959c-0.281-0.759-0.421-1.594-0.421-2.506C52.188,39.161,52.333,38.341,52.621,37.582z
	 M43.19,34.143l2.483,8.041h0.046l2.482-8.041h3.212l-3.986,11.775h-3.599l-4.032-11.775H43.19z M36.404,53.832v-2.665h3.234v2.665
	H36.404z M39.638,55.655v11.775h-3.234V55.655H39.638z M35.127,29.655h3.235v2.665h-3.235V29.655z M21.871,29.655h11.435v3.006
	h-7.858v3.759h6.811v2.778h-6.811v6.72h-3.576V29.655z M34.103,86.188c-0.289,0.638-0.717,1.188-1.287,1.65
	c-0.57,0.464-1.276,0.825-2.119,1.082c-0.843,0.259-1.819,0.388-2.927,0.388c-0.896,0-1.765-0.11-2.608-0.33
	c-0.843-0.221-1.587-0.565-2.232-1.036c-0.646-0.472-1.159-1.071-1.538-1.8c-0.379-0.729-0.562-1.594-0.546-2.597h3.462
	c0,0.547,0.099,1.011,0.296,1.39c0.198,0.38,0.46,0.687,0.786,0.923c0.326,0.234,0.71,0.409,1.15,0.523
	c0.44,0.113,0.896,0.171,1.366,0.171c0.319,0,0.661-0.026,1.025-0.08c0.365-0.053,0.707-0.155,1.025-0.308
	c0.319-0.151,0.584-0.36,0.797-0.626c0.212-0.266,0.319-0.604,0.319-1.014c0-0.44-0.141-0.798-0.421-1.07
	c-0.281-0.273-0.649-0.501-1.105-0.685c-0.456-0.182-0.972-0.341-1.548-0.478c-0.578-0.137-1.162-0.289-1.755-0.455
	c-0.607-0.152-1.199-0.338-1.776-0.559s-1.094-0.505-1.549-0.854c-0.455-0.35-0.824-0.787-1.105-1.311
	c-0.28-0.523-0.421-1.157-0.421-1.902c0-0.834,0.179-1.56,0.536-2.174c0.356-0.616,0.823-1.129,1.401-1.538
	c0.578-0.41,1.23-0.714,1.959-0.911c0.729-0.198,1.458-0.296,2.187-0.296c0.85,0,1.667,0.095,2.449,0.284
	c0.782,0.19,1.477,0.498,2.084,0.923c0.607,0.426,1.089,0.968,1.446,1.628c0.355,0.661,0.535,1.462,0.535,2.403h-3.462
	c-0.03-0.485-0.132-0.889-0.307-1.207c-0.175-0.318-0.407-0.569-0.695-0.752c-0.289-0.182-0.619-0.311-0.991-0.387
	c-0.372-0.075-0.778-0.114-1.218-0.114c-0.289,0-0.577,0.03-0.866,0.092c-0.289,0.061-0.551,0.167-0.786,0.319
	c-0.236,0.151-0.429,0.341-0.581,0.568c-0.152,0.229-0.228,0.517-0.228,0.865c0,0.319,0.06,0.578,0.182,0.775
	c0.122,0.197,0.36,0.38,0.718,0.546c0.355,0.167,0.85,0.334,1.48,0.501c0.63,0.168,1.454,0.38,2.472,0.639
	c0.303,0.061,0.725,0.17,1.264,0.33c0.539,0.159,1.073,0.414,1.606,0.764c0.531,0.349,0.99,0.815,1.378,1.399
	c0.387,0.585,0.581,1.334,0.581,2.244C34.536,84.857,34.391,85.55,34.103,86.188z M34.103,64.675
	c-0.289,0.638-0.717,1.188-1.287,1.651c-0.57,0.463-1.276,0.824-2.119,1.082c-0.843,0.258-1.819,0.387-2.927,0.387
	c-0.896,0-1.765-0.109-2.608-0.33s-1.587-0.565-2.232-1.036c-0.646-0.471-1.159-1.07-1.538-1.8
	c-0.379-0.729-0.562-1.594-0.546-2.596h3.462c0,0.546,0.099,1.01,0.296,1.389c0.198,0.38,0.46,0.688,0.786,0.923
	s0.71,0.41,1.15,0.523c0.44,0.113,0.896,0.172,1.366,0.172c0.319,0,0.661-0.027,1.025-0.08c0.365-0.054,0.707-0.155,1.025-0.308
	c0.319-0.152,0.584-0.361,0.797-0.627c0.212-0.266,0.319-0.604,0.319-1.014c0-0.44-0.141-0.797-0.421-1.07s-0.649-0.501-1.105-0.683
	c-0.456-0.183-0.972-0.342-1.548-0.479c-0.578-0.137-1.162-0.289-1.755-0.456c-0.607-0.152-1.199-0.338-1.776-0.558
	c-0.577-0.221-1.094-0.505-1.549-0.854c-0.455-0.35-0.824-0.786-1.105-1.31c-0.28-0.523-0.421-1.157-0.421-1.902
	c0-0.835,0.179-1.56,0.536-2.175s0.823-1.127,1.401-1.538c0.578-0.41,1.23-0.713,1.959-0.911s1.458-0.296,2.187-0.296
	c0.85,0,1.667,0.095,2.449,0.284c0.782,0.191,1.477,0.499,2.084,0.923c0.607,0.426,1.089,0.968,1.446,1.629
	c0.355,0.66,0.535,1.461,0.535,2.403h-3.462c-0.03-0.486-0.132-0.888-0.307-1.207c-0.175-0.319-0.407-0.57-0.695-0.752
	c-0.289-0.183-0.619-0.312-0.991-0.388c-0.372-0.075-0.778-0.114-1.218-0.114c-0.289,0-0.577,0.031-0.866,0.091
	c-0.289,0.061-0.551,0.167-0.786,0.319c-0.236,0.151-0.429,0.342-0.581,0.569c-0.152,0.228-0.228,0.517-0.228,0.866
	c0,0.319,0.06,0.577,0.182,0.774c0.122,0.198,0.36,0.381,0.718,0.547c0.355,0.167,0.85,0.334,1.48,0.501
	c0.63,0.167,1.454,0.38,2.472,0.637c0.303,0.062,0.725,0.171,1.264,0.331c0.539,0.159,1.073,0.414,1.606,0.763
	c0.531,0.349,0.99,0.817,1.378,1.401c0.387,0.584,0.581,1.333,0.581,2.244C34.536,63.346,34.391,64.037,34.103,64.675z
	 M35.127,34.143h3.235v11.775h-3.235V34.143z M42.782,79.331h-2.369v5.831c0,0.547,0.091,0.91,0.273,1.094
	c0.183,0.182,0.547,0.273,1.094,0.273c0.183,0,0.356-0.009,0.523-0.023s0.327-0.038,0.479-0.068v2.506
	c-0.274,0.046-0.578,0.075-0.912,0.092c-0.334,0.014-0.661,0.022-0.979,0.022c-0.501,0-0.975-0.035-1.423-0.104
	c-0.448-0.067-0.843-0.201-1.185-0.398s-0.611-0.479-0.809-0.843c-0.197-0.364-0.296-0.843-0.296-1.435v-6.947h-1.958v-2.164h1.958
	v-3.53h3.235v3.53h2.369V79.331z M55.492,83.841h-8.497c0.045,1.048,0.311,1.807,0.797,2.277c0.486,0.471,1.185,0.707,2.095,0.707
	c0.653,0,1.215-0.163,1.686-0.49c0.471-0.326,0.76-0.672,0.866-1.036h2.847c-0.455,1.412-1.154,2.422-2.096,3.029
	s-2.081,0.911-3.417,0.911c-0.926,0-1.761-0.148-2.505-0.444c-0.744-0.296-1.374-0.718-1.891-1.264
	c-0.516-0.547-0.915-1.2-1.195-1.96c-0.281-0.758-0.421-1.594-0.421-2.505c0-0.881,0.144-1.7,0.433-2.46
	c0.289-0.759,0.699-1.416,1.23-1.97c0.532-0.555,1.166-0.991,1.902-1.31c0.737-0.319,1.553-0.479,2.449-0.479
	c1.002,0,1.875,0.193,2.62,0.581c0.744,0.387,1.355,0.907,1.833,1.56c0.479,0.652,0.824,1.397,1.036,2.232
	C55.476,82.057,55.551,82.93,55.492,83.841z M56.995,59.64c-0.031-0.349-0.114-0.653-0.25-0.911
	c-0.137-0.258-0.339-0.462-0.604-0.615c-0.266-0.152-0.625-0.228-1.082-0.228c-0.456,0-0.823,0.088-1.104,0.262
	c-0.281,0.175-0.501,0.403-0.661,0.684c-0.159,0.281-0.266,0.6-0.319,0.957c-0.053,0.357-0.08,0.718-0.08,1.082v6.561h-3.234v-6.605
	c0-0.35-0.008-0.695-0.023-1.037c-0.016-0.342-0.08-0.657-0.194-0.945c-0.114-0.289-0.304-0.521-0.569-0.695
	c-0.266-0.174-0.657-0.262-1.173-0.262c-0.152,0-0.353,0.035-0.604,0.103c-0.25,0.069-0.493,0.198-0.729,0.388
	c-0.235,0.189-0.437,0.462-0.604,0.82c-0.168,0.356-0.251,0.823-0.251,1.401v6.833H42.28V55.655h3.052v1.594h0.046
	c0.425-0.607,0.938-1.078,1.537-1.412c0.6-0.334,1.288-0.501,2.062-0.501c0.744,0,1.424,0.145,2.038,0.433
	c0.615,0.29,1.082,0.797,1.401,1.526c0.349-0.516,0.824-0.972,1.424-1.367c0.6-0.395,1.31-0.592,2.13-0.592
	c0.622,0,1.199,0.076,1.731,0.228c0.531,0.152,0.986,0.395,1.366,0.729c0.38,0.333,0.676,0.771,0.889,1.31
	c0.213,0.54,0.319,1.189,0.319,1.948v7.881H57.04v-6.674C57.04,60.362,57.024,59.99,56.995,59.64z M69.066,85.458
	c-0.212,0.729-0.536,1.374-0.968,1.937s-0.973,1.01-1.617,1.344c-0.646,0.334-1.402,0.501-2.267,0.501
	c-0.729,0-1.401-0.148-2.016-0.444c-0.615-0.296-1.12-0.732-1.514-1.31h-0.046v5.581h-3.234V77.167h3.075v1.504h0.046
	c0.395-0.639,0.896-1.102,1.503-1.39c0.606-0.289,1.275-0.433,2.004-0.433c0.926,0,1.723,0.175,2.391,0.523
	c0.669,0.35,1.223,0.812,1.663,1.39c0.44,0.577,0.767,1.248,0.98,2.016c0.212,0.768,0.319,1.567,0.319,2.403
	C69.385,83.971,69.279,84.729,69.066,85.458z M67.62,67.283c-0.616-0.297-1.121-0.733-1.515-1.31H66.06v5.58h-3.235V55.655H65.9
	v1.503h0.045c0.395-0.638,0.896-1.101,1.503-1.39c0.607-0.288,1.276-0.433,2.004-0.433c0.926,0,1.724,0.174,2.392,0.524
	c0.668,0.35,1.223,0.812,1.663,1.389c0.441,0.577,0.767,1.249,0.98,2.017c0.212,0.767,0.318,1.567,0.318,2.402
	c0,0.79-0.106,1.549-0.318,2.278c-0.212,0.729-0.536,1.374-0.968,1.936c-0.433,0.562-0.973,1.011-1.618,1.345
	c-0.646,0.333-1.401,0.501-2.267,0.501C68.908,67.727,68.235,67.578,67.62,67.283z M81.195,87.109
	c-0.311,0.524-0.717,0.945-1.219,1.265c-0.501,0.318-1.074,0.542-1.72,0.671c-0.645,0.13-1.302,0.194-1.97,0.194
	c-0.683,0-1.352-0.068-2.004-0.204c-0.653-0.138-1.233-0.365-1.743-0.685c-0.509-0.318-0.926-0.74-1.252-1.264
	c-0.328-0.524-0.505-1.181-0.535-1.971h3.075c0,0.35,0.072,0.649,0.216,0.899c0.145,0.251,0.331,0.456,0.558,0.616
	c0.228,0.159,0.49,0.276,0.786,0.353c0.297,0.076,0.604,0.114,0.922,0.114c0.229,0,0.467-0.027,0.718-0.08
	c0.25-0.054,0.478-0.137,0.684-0.251c0.204-0.113,0.375-0.265,0.512-0.456c0.136-0.189,0.205-0.428,0.205-0.717
	c0-0.485-0.323-0.851-0.968-1.093c-0.646-0.243-1.545-0.486-2.699-0.729c-0.471-0.106-0.93-0.232-1.378-0.376
	s-0.847-0.333-1.195-0.569c-0.35-0.235-0.63-0.531-0.843-0.888c-0.213-0.357-0.319-0.794-0.319-1.311
	c0-0.759,0.148-1.382,0.444-1.867c0.296-0.486,0.687-0.869,1.173-1.15c0.486-0.281,1.032-0.479,1.64-0.592
	c0.607-0.114,1.23-0.172,1.867-0.172c0.638,0,1.256,0.062,1.857,0.183c0.6,0.122,1.136,0.327,1.606,0.615s0.861,0.672,1.172,1.149
	c0.312,0.479,0.498,1.083,0.558,1.812h-3.075c-0.045-0.623-0.281-1.044-0.706-1.265c-0.425-0.22-0.926-0.329-1.503-0.329
	c-0.182,0-0.38,0.011-0.593,0.033c-0.212,0.023-0.407,0.072-0.581,0.147c-0.175,0.077-0.322,0.188-0.444,0.331
	c-0.121,0.145-0.182,0.339-0.182,0.581c0,0.289,0.106,0.523,0.319,0.706s0.489,0.33,0.831,0.444
	c0.342,0.114,0.733,0.216,1.174,0.308c0.439,0.091,0.887,0.189,1.344,0.296c0.471,0.106,0.929,0.234,1.377,0.387
	s0.846,0.354,1.196,0.604s0.63,0.561,0.843,0.934c0.211,0.372,0.319,0.831,0.319,1.378C81.662,85.937,81.506,86.585,81.195,87.109z
	 M93.779,62.329h-8.495c0.045,1.047,0.311,1.807,0.797,2.277s1.185,0.706,2.096,0.706c0.652,0,1.215-0.162,1.686-0.49
	c0.47-0.326,0.759-0.671,0.865-1.036h2.847c-0.454,1.412-1.153,2.423-2.095,3.03c-0.942,0.607-2.081,0.911-3.417,0.911
	c-0.926,0-1.762-0.148-2.506-0.444c-0.743-0.297-1.374-0.718-1.891-1.265c-0.516-0.547-0.914-1.199-1.196-1.959
	c-0.28-0.759-0.421-1.594-0.421-2.506c0-0.88,0.145-1.7,0.433-2.459c0.288-0.759,0.698-1.417,1.229-1.971
	c0.531-0.554,1.166-0.99,1.902-1.309c0.737-0.319,1.553-0.479,2.449-0.479c1.002,0,1.876,0.194,2.619,0.581
	c0.744,0.387,1.355,0.908,1.834,1.561c0.479,0.652,0.824,1.396,1.036,2.231C93.766,60.544,93.841,61.417,93.779,62.329z"/>
<path d="M59.875,36.898c-0.388-0.425-0.976-0.638-1.766-0.638c-0.516,0-0.945,0.088-1.287,0.262
	c-0.342,0.175-0.615,0.391-0.82,0.649s-0.35,0.532-0.432,0.82c-0.083,0.289-0.133,0.546-0.148,0.774h5.262
	C60.532,37.946,60.263,37.324,59.875,36.898z"/>
<path d="M87.972,57.772c-0.517,0-0.945,0.088-1.287,0.262c-0.342,0.174-0.615,0.391-0.82,0.648c-0.206,0.259-0.35,0.533-0.433,0.821
	c-0.083,0.289-0.133,0.546-0.147,0.774h5.261c-0.15-0.82-0.421-1.443-0.809-1.868C89.35,57.986,88.762,57.772,87.972,57.772z"/>
</svg>
